
     Fifty.Dead.Men.Walking.2008.DvDRiP.XViD.Optional MultiSub.Zen_Bud.avi

Format                           : AVI
File size                        : 1.37 GiB
Duration                         : 1h 57mn
Overall bit rate                 : 1 671 Kbps

Video

Format                           : MPEG-4 Visual
Codec ID/Hint                    : XviD
Duration                         : 1h 57mn
Bit rate                         : 1 212 Kbps
Width                            : 720 pixels
Height                           : 496 pixels
Display aspect ratio             : 2.065
Stream size                      : 1 018 MiB (73%)
Writing library                  : XviD 1.1.2 (UTC 2006-11-01)

Audio

Format                           : AC-3
Duration                         : 1h 57mn
Bit rate                         : 448 Kbps
Channel(s)                       : 6 channels
Channel positions                : Front: L C R, Side: L R, LFE
Sampling rate                    : 48.0 KHz
Stream size                      : 376 MiB (27%)


********** Text: English Danish Finnish Norwegian Swedish **********
